<?xml version="1.0" encoding="utf-8"?>
<!-- Generator: Adobe Illustrator 26.0.3, SVG Export Plug-In . SVG Version: 6.00 Build 0)  -->
<svg version="1.1" id="Layer_1" xmlns="http://www.w3.org/2000/svg" xmlns:xlink="http://www.w3.org/1999/xlink" x="0px" y="0px"
	 viewBox="0 0 216 144" style="enable-background:new 0 0 216 144;" xml:space="preserve" >
   <style type="text/css">
	.st0{fill:orange;}
</style>
<g>
	<path class="st0" d="M192.56,75.2c-0.9,0-3.76,0.36-5.08,0.65c-14.85,3.48-21.09,5.16-24.53,6.26l0.01-0.06c0.72-8.51,0.91-13.75,2.28-22.49
		c0.79-5.7,2.18-10.84,3.43-16.89c0.24-1.24,0-1.89-0.61-2.44c-1.72-1.23-3.9-1.15-5.88-0.58c-0.96,0.24-1.61,0.79-1.96,1.9
		c-2.99,8.84-4.73,18.31-8.78,26.7c-0.76,1.68-2.52,4.71-2.67,0.66c-0.4-6.35,2.88-17.53,3.83-22.57c0.26-0.85,0.13-1.37-0.11-1.7
		c-1.22-1.43-4.83-1.4-6.23-1.05c-1.11,0.28-1.76,0.83-2.19,1.96c-0.78,2.27-1.96,7.16-2.83,12.61c-2.02,5.72-5.26,13.03-8.1,17.14
		c-1.26,1.88-1.78,1.7-2.01-1.46c-0.79-8.82,1.14-20.93,4.03-32.08c7.45-2.26,12.76-4.12,14.48-4.73c0.45-0.19,0.6-0.73,0.84-1.8
		c0.26-1.19-0.05-2.43-1.85-2.03c-3.59,1.28-7.72,2.58-12.19,3.83c1.61-5.6,3.37-10.86,5.02-15.03c0.72-1.83-1.18-2.54-2.64-2.72
		c-2.42-0.26-5.46,0.18-6.48,2.39c-1.89,3.76-4,10.38-5.8,17.95c-16.79,4.09-35.85,7.31-48.44,7.52c-0.61,0-1.29-0.05-1.8-0.3
		c-0.21-0.17-0.45-0.26-0.52-0.09c-0.75,1.24,0.76,6.19,2.75,6.37c0.68,0.06,1.63,0.05,2.17-0.01c15.25-1.21,31.66-4.94,44.71-8.52
		c-1.25,5.99-2.22,12.3-2.68,18.16c-2.28,3.89-4.12,5.96-7.95,8.8c-1.38-3.04-2.23-6.44-0.19-10.56c0.65-1.5,1.73-2.86,3.1-3.99
		c0,0,0.54-0.37,0.45-1.05c-0.22-2.78-5.27-4.12-7.19-3.64c-2.22,0.55-3.83,2.6-4.73,4.4c-1.45,2.9-1.78,5.59-1.5,8.09
		c-1.77,5.76-5.74,15.38-9.06,19.99c-1.02,1.27-1.87,1.64-1.96-1.87c-0.01-4.48,1.26-10.14,2.43-13.96
		c0.97-3.38,2.55-6.84,3.79-9.11c0.93-1.65-0.87-2.54-2.2-2.83c-2.2-0.63-3.96-0.12-5.29,1.79c-0.93,1.33-1.82,3.12-2.73,5.16
		c-0.05-0.85-0.2-1.76-0.57-2.3c-1.05-1.39-3.66-2.39-5.32-2.45c-1.04-0.06-2.07,0.51-3.07,1.23c-6.76,5.06-10.97,18.83-11.3,27.33
		c-0.02,3.39,0.44,5.55,1.08,6.89c1.14,2.7,4.82,5.8,7.93,5.03c1.17-0.37,2.28-2.22,3.21-4.81c1.13-3.03,2.27-6.38,3.29-9.86
		c0.07,3.13,0.56,5.76,1.82,7.64c1.75,2.63,4.64,3.8,7.67,3.05c4.47-1.11,9.23-18.87,11.02-27.57c0.98,3.02,2.62,5.74,3.9,8.23
		c-2.45,2.81-4.14,6.14-3.74,9.65c0.42,2.65,3.71,5.45,6.45,5.08c2.3-0.25,3.56-1.51,4.63-3.51c2.27-4.81,1.25-8.56-0.74-13.1
		c2.06-2.07,4.44-4.32,6.51-7.58c-0.24,7.09,0.45,13.13,2.61,16.48c1.38,2.09,4.21,3.67,6.73,3.05c2.97-0.74,6.07-8.75,8.34-16.61
		c-0.04,3.95,0.41,7.39,1.66,9.41c1.24,2.13,4.21,3.67,6.66,3.06c2.59-0.64,4.95-6.02,7.14-12.07c-0.64,5.03-0.96,10.06-1.52,15.08
		c-5.28,2.8-9.39,7.13-9.77,14.14c-0.25,4.38,4.37,6.85,8.13,5.84c7.46-2.01,9.24-10.66,9.98-17.24c10.15-3.19,21-5.84,27.61-6.7
		c0.81-0.05,3.84-0.32,4.65-0.09c0.31,0.04,1.05,0.35,1.21,0.08C196.98,80,196.7,75.13,192.56,75.2z M78.5,90.13
		c-4.32-5.86-0.78-22.05,8.35-24.32C86.84,65.81,82.48,84.03,78.5,90.13z M109.77,86.61c-1.07-2.12,0.42-5.27,1.31-7.06
		C114.21,82.25,113.79,87.85,109.77,86.61z M148.65,100.15c-1.4-2.23,1.73-10.11,6.42-10.67
		C155.36,96.52,153.43,102.01,148.65,100.15z"/>
	<path class="st0" d="M143.11,90c0.18-1.7-1.26-1.12-3.38-0.73c-7,1.47-23.72,5.98-62.16,17.88c-0.76,0.26-1.85,0.73-2.65,1.15
		c-2.31,1.29-1.67,5.44-0.84,6.21c0.26,0.16,0.46,0.08,1.16-0.21c0.82-0.4,2.84-1.36,3.59-1.69c23.05-7.07,36.59-12.69,62.24-18.45
		C142.02,94.02,142.97,91.29,143.11,90z"/>
	<path class="st0" d="M72.63,42.33c3.63-1.53,7.52-2.97,11.81-4.03c5.63-1.4,13.29-2.83,17.35,2.77c0.33,0.39,0.63,0.94,1.07,0.83
		c2.57-0.72,4.55-7.34,2.18-10.21c-3.79-4.8-13.35-3.45-18.92-2.14C69.5,33.51,54.47,46.75,38.35,50.83
		c-4.81,1.19-11.31,1.94-15.09-2.23c-0.33-0.39-0.76-0.83-1.2-0.72c-2.46,1.16-3.82,7.71-1.16,10.51c5.23,5.23,17,1.05,23.17-1.35
		c5.42-2.21,10.24-4.98,15.15-7.69c-3.13,9.89-5.92,24.89-7.26,39.14c-1.19,13.26,0.01,25.7,2.68,32.35
		c1.24,3.07,6.93,4.8,10.19,3.99c1.78-0.44,0.89-1.48,0.61-2.27C55.98,103.84,64.27,60.59,72.63,42.33z"/>
</g>
</svg>
